<svg version="1.1" xmlns="http://www.w3.org/2000/svg" style="display: block;" viewBox="0 0 1024 1112" width="256" height="278" preserveAspectRatio="none">
<path transform="translate(0,0)" fill="rgb(8,71,159)" d="M 616.22 118.405 C 599.362 117.491 577.415 107.151 560.604 104.514 C 508.207 96.2944 457.341 104.671 408.376 124.383 C 392.492 130.778 374.775 144.136 359.501 153.193 C 355.763 155.409 340.417 171.999 334.459 175.137 C 329.081 185.342 316.357 194.891 310.323 203.361 C 285.737 237.878 263.356 285.458 255.596 328.06 C 246.178 379.764 249.755 446.126 257.055 498.135 C 259.101 512.714 266.414 527.712 270.213 541.935 C 278.352 578.668 293.255 611.182 309.943 644.636 C 320.88 666.561 334.877 688.109 348.73 708.35 C 396.081 777.53 457.653 834.43 530.337 876.32 C 547.218 885.993 570.503 892.945 588.143 902.39 C 599.67 908.402 621.12 910.799 633.901 914.465 C 674.934 926.238 711.705 927.411 752.683 915.035 C 765.836 911.375 780.708 909.297 794.317 902.91 C 841.598 880.721 871.142 859.115 901.552 815.522 C 903.753 813.083 912.292 795.293 913.458 794.43 C 922.267 787.912 935.847 745.868 939.707 744.155 C 942.459 748.021 937.7 766.47 936.62 771.718 C 933.328 783.705 931.223 801.648 925.727 812.591 C 918.535 826.909 909.352 845.769 901.219 859.142 C 862.185 923.325 792.741 973.626 717.571 983.358 C 673.931 989.008 625.542 986.454 582.693 976.662 C 571.736 974.278 561.013 969.093 550.406 965.913 C 528.332 960.473 511.148 950.022 491.258 940.517 C 454.591 922.996 421.888 900.139 390.298 874.064 C 317.909 814.311 257.758 733.449 220.374 647.379 C 215.343 635.795 209.165 624.981 204.883 613.083 C 198.571 598.202 196.385 578.791 190.647 564.064 C 177.175 529.484 173.293 500.317 169.43 463.553 C 163.425 406.417 166.583 349.345 179.138 293.197 C 181.15 284.203 189.052 273.32 191.322 263.926 C 198.056 241.061 207.535 222.145 220.925 202.564 C 225.571 195.771 229.488 187.605 234.751 180.974 C 262.396 146.147 298.176 118.659 337.878 98.8831 C 350.321 92.8222 365.289 90.1197 378.035 85.5315 C 419.861 70.4752 463.525 70.8413 507.105 76.0586 C 514.656 76.9625 529.052 80.7255 536.783 82.9975 C 561.846 90.3633 599.645 95.138 620.133 111.537 L 620.506 111.78 C 629.636 117.649 665.426 126.927 670.361 141.069 L 669.622 142.038 C 658.573 137.673 652.237 135.346 642.799 127.853 C 636.003 122.458 623.332 122.69 616.22 118.405 z"/>
<path transform="translate(0,0)" fill="rgb(236,100,0)" d="M 702.766 1030.6 C 656.373 1039.27 618.905 1043.6 571.956 1034.81 C 561.598 1032.98 550.551 1032.15 540.35 1029.63 C 498.656 1019.3 466.982 1009.03 428.424 990.56 C 321.012 939.096 234.561 855.036 173.22 753.471 C 161.124 733.443 148.72 716.258 141.793 693.657 C 138.483 683.479 128.748 669.87 125.033 658.332 C 121.111 646.15 115.823 633.948 112.06 621.641 C 96.8544 583.561 89.8979 543.694 86.9008 502.972 C 86.4797 493.84 83.8932 483.448 83.9647 474.404 C 84.2647 436.443 81.9687 395.662 86.0602 358.03 C 88.7571 334.784 93.3695 311.801 99.8502 289.314 C 110.686 253.027 134.846 208.853 157.439 177.984 C 169.959 160.877 196.566 135.816 212.42 121.056 C 220.369 113.655 246.647 99.3332 257.008 93.7128 C 246.905 110.291 220.197 130.919 206.015 147.054 C 185.426 170.478 164.17 199.58 150.096 227.625 C 145.103 238.441 142.408 249.919 137.982 260.973 C 99.8118 356.294 104.759 467.433 127.405 565.854 C 129.223 578.039 138.4 593.353 140.678 604.484 C 146.298 631.931 157.383 650.964 168.285 675.657 C 187.321 718.773 211.558 756.273 237.671 795.215 C 241.714 801.244 248.887 807.252 253.373 813.14 C 317.611 893.971 406.129 962.566 503.804 997.314 C 510.938 999.852 519.041 1004.81 526.398 1007.05 C 580.874 1023.69 636.157 1022.27 691.694 1020.9 C 696.451 1021.45 704.026 1021 706.152 1023.4 C 704.944 1025.8 703.875 1028.16 702.766 1030.6 z"/>
<path transform="translate(0,0)" fill="rgb(236,100,0)" d="M 485.556 137.376 C 501.851 135.814 518.477 140.221 534.337 141.057 C 567.864 142.825 595.374 149.034 626.208 161.621 C 673.305 180.681 716.96 207.33 755.439 240.507 C 757.961 242.715 760.369 245.097 762.624 247.573 C 775.613 261.832 790.253 274.387 804.077 287.762 C 805.752 299.026 812.995 302.819 800.281 306.111 C 768.114 314.438 757.972 287.768 739.809 269.802 L 739.25 269.255 C 690.173 223.94 629.33 182.762 564.613 165.398 C 554.58 162.706 541.287 155.966 531.231 154.839 C 487.08 149.893 435.931 148.301 392.548 157.512 C 390.02 160.914 389.82 162.38 385.586 161.085 L 386.47 159.328 C 411.746 142.445 456.694 141.017 485.556 137.376 z"/>
<path transform="translate(0,0)" fill="rgb(236,100,0)" d="M 876.816 742.125 C 882.345 741.823 886.805 740.42 890.363 745.072 C 894.133 780.403 830.95 848.501 803.525 867.476 C 798.359 871.05 793.125 876.757 787.279 879.139 C 783.518 880.427 780.17 881.933 776.25 881.352 L 775.603 879.991 C 777.697 876.033 790.117 865.558 794.243 861.215 C 817.459 836.776 835.063 819.524 851.24 789.482 C 860.307 772.643 862.785 750.634 876.816 742.125 z"/>
<path transform="translate(0,0)" fill="rgb(206,99,12)" fill-opacity="0.94902" d="M 691.694 1020.9 C 696.352 1020.27 734.177 1016.53 735.522 1017.25 C 725.092 1023.6 716.994 1019.98 702.766 1030.6 C 703.875 1028.16 704.944 1025.8 706.152 1023.4 C 704.026 1021 696.451 1021.45 691.694 1020.9 z"/>
</svg>